<svg width="228" height="132" viewBox="0 0 228 132" fill="none" xmlns="http://www.w3.org/2000/svg">
<circle cx="66" cy="66" r="66" fill="#FF6E4E"/>
<path d="M51.985 55.485H40.915V51.645H51.28V47.145H40.915V43.515H51.925V39H35.905V60H51.985V55.485ZM61.7197 44.88C57.0247 44.88 53.7847 48.135 53.7847 52.635C53.7847 57.135 57.0247 60.39 61.7197 60.39C64.4497 60.39 66.6097 59.19 68.0197 57.195L64.3597 54.585C63.6247 55.515 62.6947 56.01 61.5847 56.01C59.9497 56.01 58.5847 54.765 58.5847 52.635C58.5847 50.52 59.9797 49.26 61.6147 49.26C62.7547 49.26 63.5947 49.725 64.3297 50.67L68.0047 48.105C66.5947 46.095 64.4497 44.88 61.7197 44.88ZM76.6951 44.88C72.1051 44.88 68.7151 48.18 68.7151 52.635C68.7151 57.09 72.1051 60.39 76.6951 60.39C81.3001 60.39 84.6901 57.09 84.6901 52.635C84.6901 48.18 81.3001 44.88 76.6951 44.88ZM76.6951 49.26C78.5401 49.26 79.8901 50.655 79.8901 52.635C79.8901 54.615 78.5401 56.01 76.6951 56.01C74.8651 56.01 73.5151 54.615 73.5151 52.635C73.5151 50.655 74.8651 49.26 76.6951 49.26ZM104.916 44.88C102.891 44.88 101.241 45.645 100.251 47.34C99.3513 45.765 97.7013 44.88 95.7663 44.88C93.8013 44.88 92.3163 45.585 91.3863 47.13V45.285H86.8863V60H91.5813V52.08C91.5813 50.175 92.6613 49.29 93.9663 49.29C95.4213 49.29 96.2913 50.265 96.2913 52.005V60H100.986V52.08C100.986 50.175 102.081 49.29 103.371 49.29C104.841 49.29 105.711 50.265 105.711 52.005V60H110.406V50.34C110.406 46.95 108.276 44.88 104.916 44.88ZM131.302 44.88C129.277 44.88 127.627 45.645 126.637 47.34C125.737 45.765 124.087 44.88 122.152 44.88C120.187 44.88 118.702 45.585 117.772 47.13V45.285H113.272V60H117.967V52.08C117.967 50.175 119.047 49.29 120.352 49.29C121.807 49.29 122.677 50.265 122.677 52.005V60H127.372V52.08C127.372 50.175 128.467 49.29 129.757 49.29C131.227 49.29 132.097 50.265 132.097 52.005V60H136.792V50.34C136.792 46.95 134.662 44.88 131.302 44.88ZM146.422 44.88C141.952 44.88 138.877 48.09 138.877 52.725C138.877 57.315 142.012 60.39 146.632 60.39C149.347 60.39 151.582 59.505 153.112 57.975L150.082 55.155C149.152 55.995 147.967 56.445 146.872 56.445C145.252 56.445 144.112 55.695 143.722 54.09H153.697C153.757 53.775 153.787 53.115 153.787 52.635C153.772 48.03 150.787 44.88 146.422 44.88ZM146.437 48.87C147.802 48.87 148.717 49.65 149.092 51.12H143.737C144.097 49.665 144.982 48.87 146.437 48.87ZM164.484 44.88C162.684 44.88 161.319 45.555 160.464 46.98V45.285H155.964V60H160.659V52.05C160.659 50.22 161.679 49.395 163.344 49.395C164.184 49.395 165.069 49.575 165.699 49.785L166.134 45.105C165.774 45 165.174 44.88 164.484 44.88ZM174.71 44.88C170.015 44.88 166.775 48.135 166.775 52.635C166.775 57.135 170.015 60.39 174.71 60.39C177.44 60.39 179.6 59.19 181.01 57.195L177.35 54.585C176.615 55.515 175.685 56.01 174.575 56.01C172.94 56.01 171.575 54.765 171.575 52.635C171.575 50.52 172.97 49.26 174.605 49.26C175.745 49.26 176.585 49.725 177.32 50.67L180.995 48.105C179.585 46.095 177.44 44.88 174.71 44.88ZM189.25 44.88C184.78 44.88 181.705 48.09 181.705 52.725C181.705 57.315 184.84 60.39 189.46 60.39C192.175 60.39 194.41 59.505 195.94 57.975L192.91 55.155C191.98 55.995 190.795 56.445 189.7 56.445C188.08 56.445 186.94 55.695 186.55 54.09H196.525C196.585 53.775 196.615 53.115 196.615 52.635C196.6 48.03 193.615 44.88 189.25 44.88ZM189.265 48.87C190.63 48.87 191.545 49.65 191.92 51.12H186.565C186.925 49.665 187.81 48.87 189.265 48.87ZM46.09 71.61C39.61 71.61 35.035 76.14 35.035 82.5C35.035 88.86 39.61 93.39 46.09 93.39C50.11 93.39 53.305 91.605 55.225 88.74L51.115 85.83C49.915 87.615 48.175 88.59 46.045 88.59C42.94 88.59 40.255 86.4 40.255 82.5C40.255 78.9 42.715 76.41 46.03 76.41C48.205 76.41 49.93 77.4 51.025 79.185L55.42 76.665C53.635 73.485 50.095 71.61 46.09 71.61ZM64.3721 77.88C59.7821 77.88 56.3921 81.18 56.3921 85.635C56.3921 90.09 59.7821 93.39 64.3721 93.39C68.9771 93.39 72.3671 90.09 72.3671 85.635C72.3671 81.18 68.9771 77.88 64.3721 77.88ZM64.3721 82.26C66.2171 82.26 67.5671 83.655 67.5671 85.635C67.5671 87.615 66.2171 89.01 64.3721 89.01C62.5421 89.01 61.1921 87.615 61.1921 85.635C61.1921 83.655 62.5421 82.26 64.3721 82.26ZM83.4434 77.88C81.4784 77.88 79.9934 78.585 79.0634 80.13V78.285H74.5634V93H79.2584V85.08C79.2584 83.175 80.3384 82.29 81.6434 82.29C83.0984 82.29 83.9684 83.265 83.9684 85.005V93H88.6634V83.34C88.6634 79.935 86.3834 77.88 83.4434 77.88ZM98.6702 77.88C93.9752 77.88 90.7352 81.135 90.7352 85.635C90.7352 90.135 93.9752 93.39 98.6702 93.39C101.4 93.39 103.56 92.19 104.97 90.195L101.31 87.585C100.575 88.515 99.6452 89.01 98.5352 89.01C96.9002 89.01 95.5352 87.765 95.5352 85.635C95.5352 83.52 96.9302 82.26 98.5652 82.26C99.7052 82.26 100.545 82.725 101.28 83.67L104.955 81.105C103.545 79.095 101.4 77.88 98.6702 77.88ZM113.211 77.88C108.741 77.88 105.666 81.09 105.666 85.725C105.666 90.315 108.801 93.39 113.421 93.39C116.136 93.39 118.371 92.505 119.901 90.975L116.871 88.155C115.941 88.995 114.756 89.445 113.661 89.445C112.041 89.445 110.901 88.695 110.511 87.09H120.486C120.546 86.775 120.576 86.115 120.576 85.635C120.561 81.03 117.576 77.88 113.211 77.88ZM113.226 81.87C114.591 81.87 115.506 82.65 115.881 84.12H110.526C110.886 82.665 111.771 81.87 113.226 81.87ZM131.498 77.88C129.503 77.88 128.168 78.72 127.283 79.875V78.285H122.753V99H127.433V91.605C128.318 92.655 129.608 93.39 131.498 93.39C135.428 93.39 138.353 89.97 138.353 85.62C138.353 81.3 135.428 77.88 131.498 77.88ZM130.373 82.26C132.263 82.26 133.523 83.715 133.523 85.635C133.523 87.555 132.263 89.01 130.373 89.01C128.528 89.01 127.238 87.585 127.238 85.635C127.238 83.685 128.528 82.26 130.373 82.26ZM151.689 78.285H146.664V73.995H141.969V78.285H139.224V82.44H141.969V87.345C141.969 91.035 143.754 93.39 147.699 93.39C150.069 93.39 151.539 92.715 152.919 91.755L151.299 88.095C150.564 88.53 149.619 89.01 148.749 89.01C147.564 89.01 146.664 88.44 146.664 86.745V82.44H151.689V78.285Z" fill="white"/>
</svg>
